# xmcd
#
# Track frame offsets:
#	150
#	11112
#	29475
#	49535
#	63500
#	88215
#	103875
#	117162
#	134632
#
# Disc length: 2185 seconds
#
# Revision: 1
# Processed by: cddbd v1.5.1PL0 Copyright (c) Steve Scherf et al.
# Submitted via: audiograbber 1.83.01
#
DISCID=80088709
DTITLE=Danny Adler - Hubcap Heaven
DYEAR=1989
DGENRE=Blues
TTITLE0=Hubcap Heaven
TTITLE1=Rhythm With 'em
TTITLE2=Pink Hot Rod
TTITLE3=Homemaker Mama
TTITLE4=Avocado Eldorado
TTITLE5=Falling In Love With My Teacher
TTITLE6=Hey Stew
TTITLE7=Breakfast In Texas
TTITLE8=Come On Down To Earth
EXTD=
EXTT0=
EXTT1=
EXTT2=
EXTT3=
EXTT4=
EXTT5=
EXTT6=
EXTT7=
EXTT8=
PLAYORDER=
